# xmcd
#
# Track frame offsets:
#	150
#	8834
#	23977
#	35392
#	43425
#	56388
#	65433
#	77012
#	85878
#	93513
#	104310
#	111948
#	124332
#	142939
#
# Disc length: 2048 seconds
#
# Revision: 0
# Processed by: cddbd v1.5.2PL0 Copyright (c) Steve Scherf et al.
# Submitted via: dBpowerAMP V4.0
#
DISCID=b707fe0e
DTITLE=Doug Muchmore - New Mexico Ranch Songs and Such
DYEAR=2008
DGENRE=Country
TTITLE0=New Mexico Cattleman's Blues
TTITLE1=Learned too Young
TTITLE2=Rodeo Cowboy's Life
TTITLE3=Cochiti Man
TTITLE4=Rancher's Requiem
TTITLE5=Still Gets it Done
TTITLE6=Hitchin' Post Saloon
TTITLE7=Last Playin' Card
TTITLE8=Lonely Nature
TTITLE9=Times of a Cowboy
TTITLE10=Computer Chip Cattle
TTITLE11=Checkin' On Thangs
TTITLE12=Gallinas Peak Cowpokes
TTITLE13=End of the Line
EXTD=
EXTT0=
EXTT1=
EXTT2=
EXTT3=
EXTT4=
EXTT5=
EXTT6=
EXTT7=
EXTT8=
EXTT9=
EXTT10=
EXTT11=
EXTT12=
EXTT13=
PLAYORDER=
